# AST/ASF file generated using VICON BodyLanguage
# -----------------------------------------------
:version 1.10
:name VICON
:units
  mass 1.0
  length 0.45
  angle deg
:documentation
   .ast/.asf automatically generated from VICON data using
   VICON BodyBuilder and BodyLanguage model FoxedUp or BRILLIANT.MOD
:root
   order TX TY TZ RX RY RZ
   axis XYZ
   position 0 0 0  
   orientation 0 0 0 
:bonedata
  begin
     id 1 
     name lhipjoint
     direction 0.521452 -0.77106 0.36545 
     length 2.0933 
     axis 0 0 0  XYZ
  end
  begin
     id 2 
     name lfemur
     direction 0.34202 -0.939693 0  
     length 6.83441  
     axis 0 0 20  XYZ
    dof rx ry rz
    limits (-160.0 20.0)
           (-70.0 70.0)
           (-60.0 70.0)
  end
  begin
     id 3 
     name ltibia
     direction 0.34202 -0.939693 0   
     length 7.28749   
     axis 0 0 20   XYZ
    dof rx
    limits (-10.0 170.0)
  end
  begin
     id 4 
     name lfoot
     direction 0.100608 -0.276418 0.955757   
     length 1.52195   
     axis -90 7.62852e-016 20   XYZ
    dof rx rz
    limits (-45.0 90.0)
           (-70.0 20.0)
  end
  begin
     id 5 
     name ltoes
     direction 1.53558e-011 -4.21907e-011 1   
     length 0.770459   
     axis -90 7.62852e-016 20   XYZ
    dof rx
    limits (-90.0 20.0)
  end
  begin
     id 6 
     name rhipjoint
     direction -0.488071 -0.788702 0.373812   
     length 2.04648  
     axis 0 0 0  XYZ 
  end
  begin
     id 7 
     name rfemur
     direction -0.34202 -0.939693 0   
     length 6.92583   
     axis 0 0 -20   XYZ
    dof rx ry rz
    limits (-160.0 20.0)
           (-70.0 70.0)
           (-70.0 60.0)
  end
  begin
     id 8 
     name rtibia
     direction -0.34202 -0.939693 0   
     length 7.41043   
     axis 0 0 -20   XYZ
    dof rx
    limits (-10.0 170.0)
 end
 begin
     id 9 
     name rfoot
     direction -0.0784433 -0.215521 0.973343   
     length 1.67708  
     axis -90 -7.62852e-016 -20   XYZ
    dof rx rz
    limits (-45.0 90.0)
           (-20.0 70.0)
  end
  begin
     id 10 
     name rtoes
     direction -1.53551e-011 -4.21842e-011 1   
     length 0.849787   
     axis -90 -7.62852e-016 -20   XYZ
    dof rx
    limits (-90.0 20.0)
  end
  begin
     id 11 
     name lowerback
     direction -0.0122332 0.997575 -0.0685192   
     length 1.98724   
     axis 0 0 0   XYZ
    dof rx ry rz
    limits (-20.0 45.0)
           (-30.0 30.0)
           (-30.0 30.0)
  end
  begin
     id 12 
     name upperback
     direction 0.0182347 0.999724 -0.0148421   
     length 1.99029   
     axis 0 0 0   XYZ
    dof rx ry rz
    limits (-20.0 45.0)
           (-30.0 30.0)
           (-30.0 30.0)
  end
  begin
     id 13 
     name thorax
     direction 0.0242908 0.99956 0.0170184   
     length 1.99573   
     axis 0 0 0   XYZ
    dof rx ry rz
    limits (-20.0 45.0)
           (-30.0 30.0)
           (-30.0 30.0)
  end
  begin
     id 14 
     name lowerneck
     direction 0.0654488 0.985533 0.156338   
     length 1.4285   
     axis 0 0 0   XYZ
    dof rx ry rz
    limits (-20.0 45.0)
           (-30.0 30.0)
           (-30.0 30.0)
  end
  begin
     id 15 
     name upperneck
     direction -0.02953 0.998556 -0.0448842   
     length 1.44709   
     axis 0 0 0   XYZ
    dof rx ry rz
    limits (-20.0 45.0)
           (-30.0 30.0)
           (-30.0 30.0)
  end
  begin
     id 16
     name head
     direction -0.0155588 0.999386 -0.0314063  
     length 1.44689  
     axis 0 0 0   XYZ
    dof rx ry rz
    limits (-20.0 45.0)
           (-30.0 30.0)
           (-30.0 30.0)
  end
  begin
     id 17 
     name lclavicle
     direction 0.968229 0.236071 -0.0824755  
     length 3.60593  
     axis 0 0 0   XYZ
    dof ry rz
    limits (-20.0 10.0)
           (0.0 20.0)
  end
  begin
     id 18 
     name lhumerus
     direction 1 -4.48968e-011 7.8138e-029   
     length 5.06035   
     axis 180 -30 -90   XYZ
    dof rx ry rz
    limits (-60.0 90.0)
           (-90.0 90.0)
           (-90.0 90.0)
  end
  begin
     id 19
     name lradius
     direction 1 -4.48967e-011 9.02887e-028   
     length 3.1478   
     axis 180 -30 -90   XYZ
    dof rx
    limits (-10.0 170.0)
  end
  begin
     id 20
     name lwrist
     direction 1 -4.48961e-011 7.20928e-028   
     length 1.5739   
     axis -5.52449e-016 90 90   XYZ
    dof ry
    limits (-180.0 0.0)
 end
  begin
     id 21 
     name lhand
     direction 1 -4.48972e-011 1.44186e-027   
     length 0.606747   
     axis -9.20027e-016 90 90   XYZ
    dof rx rz
    limits (-90.0 90.0)
           (-45.0 45.0)
  end
  begin
     id 22 
     name lfingers
     direction 1 -4.48943e-011 2.88371e-027   
     length 0.489175   
     axis -1.84005e-015 90 90   XYZ
    dof rx
    limits (0.0 90.0)
  end
  begin
     id 23
     name lthumb
     direction 0.707107 -6.34917e-011 0.707107   
     length 0.70236   
     axis -90 45 2.85299e-015   XYZ
    dof rx rz
    limits (-45.0 45.0)
           (-45.0 45.0)
  end
  begin
     id 24 
     name rclavicle
     direction -0.978165 0.207816 0.0022268   
     length 3.35425  
     axis 0 0 0   XYZ 
    dof ry rz
    limits (-10.0 20.0)
           (-20.0 0.0)
  end
  begin
     id 25 
     name rhumerus
     direction -1 -4.48964e-011 -4.02159e-027  
     length 5.12273   
     axis 180 30 90   XYZ
    dof rx ry rz
    limits (-90.0 60.0)
           (-90.0 90.0)
           (-90.0 90.0)
  end
  begin
     id 26 
     name rradius
     direction -1 -4.48966e-011 1.62746e-027   
     length 3.422   
     axis 180 30 90   XYZ
    dof rx
    limits (-10.0 170.0)
  end
  begin
     id 27 
     name rwrist
     direction -1 -4.4896e-011 7.20928e-028   
     length 1.711   
     axis -5.52449e-016 -90 -90   XYZ
    dof ry
    limits (-180.0 0.0)
  end
  begin
     id 28
     name rhand
     direction -1 -4.48979e-011 1.44186e-027   
     length 0.704599   
     axis -9.20027e-016 -90 -90   XYZ
    dof rx rz
    limits (-90.0 90.0)
           (-45.0 45.0)
  end
  begin
     id 29
     name rfingers
     direction -1 -4.48962e-011 2.88371e-027   
     length 0.568066   
     axis -1.84005e-015 -90 -90   XYZ
    dof rx
    limits (0.0 90.0)
  end
  begin
     id 30
     name rthumb
     direction -0.707107 -6.34949e-011 0.707107   
     length 0.815633   
     axis -90 -45 -2.85299e-015   XYZ
    dof rx rz
    limits (-45.0 45.0)
           (-45.0 45.0)
  end
:hierarchy
  begin
    root lhipjoint rhipjoint lowerback
    lhipjoint lfemur
    lfemur ltibia
    ltibia lfoot
    lfoot ltoes
    rhipjoint rfemur
    rfemur rtibia
    rtibia rfoot
    rfoot rtoes
    lowerback upperback
    upperback thorax
    thorax lowerneck lclavicle rclavicle
    lowerneck upperneck
    upperneck head
    lclavicle lhumerus
    lhumerus lradius
    lradius lwrist
    lwrist lhand lthumb
    lhand lfingers
    rclavicle rhumerus
    rhumerus rradius
    rradius rwrist
    rwrist rhand rthumb
    rhand rfingers
  end

#!OML:ASF E:\id_vita\Project 1\Capture day 1\Session 1\Male1.ASF
:FULLY-SPECIFIED
:DEGREES
562
root 36.3678 13.1062 -0.335171 -129.88 -81.0721 177.681
lowerback 23.2135 -0.530677 -1.4451
upperback 6.41128 -1.2585 2.9759
thorax -5.79156 -0.794642 4.42968
lowerneck -15.2552 -1.20186 -4.83101
upperneck 24.6848 2.84144 -17.185
head 10.8628 -1.48403 -5.12926
rclavicle -1.27222e-014 1.58531e-014
rhumerus 60.955 18.4728 -53.5078
rradius 26.3956
rwrist 31.4727
rhand -21.8443 36.2571
rfingers 7.12502
rthumb 4.55909 6.32615
lclavicle -1.27222e-014 1.58531e-014
lhumerus 57.4655 -15.1309 46.2246
lradius 24.4614
lwrist -13.3411
lhand -43.0667 76.5873
lfingers 7.12502
lthumb -15.9226 254.047
rfemur -6.31917 2.28108 18.142
rtibia 17.223
rfoot -23.154 -9.14345
rtoes -25.4201
lfemur -76.9587 8.46853 -26.9793
ltibia 90.0853
lfoot -43.2688 0.494555
ltoes -10.8463
563
root 36.3368 13.099 -0.343129 -129.153 -81.0311 176.891
lowerback 23.3216 -0.467528 -1.59335
upperback 6.31393 -1.2055 2.93009
thorax -5.95554 -0.760586 4.45723
lowerneck -15.0189 -1.23516 -4.52545
upperneck 24.1726 2.65864 -17.2693
head 10.606 -1.49926 -5.19397
rclavicle 2.26615e-014 2.05245e-014
rhumerus 60.747 18.3728 -53.2784
rradius 26.4387
rwrist 31.2963
rhand -21.824 36.3454
rfingers 7.12502
rthumb 4.57869 6.41485
lclavicle 2.26615e-014 2.05245e-014
lhumerus 57.6047 -15.4201 46.2795
lradius 24.3754
lwrist -13.3752
lhand -43.2402 76.6849
lfingers 7.12502
lthumb -16.0897 253.963
rfemur -6.01757 2.31603 17.9836
rtibia 16.9545
rfoot -22.7949 -8.80891
rtoes -25.3294
lfemur -76.6783 8.377 -26.9797
ltibia 90.114
lfoot -43.3697 0.612636
ltoes -10.8146
564
root 36.306 13.0933 -0.348471 -128.774 -81.0207 176.439
lowerback 23.474 -0.400451 -1.66247
upperback 6.20452 -1.12994 2.88917
thorax -6.15914 -0.715251 4.43993
lowerneck -14.822 -1.26648 -4.18679
upperneck 23.7768 2.50499 -17.4453
head 10.4073 -1.52048 -5.30465
rclavicle -9.93923e-017 1.60519e-014
rhumerus 60.4138 18.2371 -53.3351
rradius 26.4792
rwrist 31.2716
rhand -21.8515 36.5341
rfingers 7.12502
rthumb 4.55219 6.60304
lclavicle -9.93923e-017 1.60519e-014
lhumerus 57.6567 -15.6579 46.5427
lradius 24.3216
lwrist -13.5507
lhand -43.7759 77.5299
lfingers 7.12502
lthumb -16.6055 253.161
rfemur -5.64709 2.30616 17.8731
rtibia 16.6243
rfoot -22.3117 -8.04925
rtoes -24.2811
lfemur -76.4068 8.22735 -26.8914
ltibia 90.1582
lfoot -43.4918 0.725661
ltoes -10.1618
565
root 36.2722 13.0825 -0.352073 -129.34 -80.9668 177.041
lowerback 23.4532 -0.310222 -1.67603
upperback 6.11689 -1.01153 2.86372
thorax -6.25528 -0.65272 4.38837
lowerneck -15.0421 -1.25958 -3.8417
upperneck 23.7232 2.50538 -17.6796
head 10.4355 -1.52006 -5.45534
rclavicle 9.44227e-015 1.27968e-014
rhumerus 60.0206 18.0935 -53.5031
rradius 26.6502
rwrist 31.5524
rhand -21.9955 36.9971
rfingers 7.12502
rthumb 4.41308 7.06304
lclavicle 9.44227e-015 1.27968e-014
lhumerus 57.692 -15.8355 46.701
lradius 24.3793
lwrist -13.527
lhand -43.8209 77.588
lfingers 7.12502
lthumb -16.6488 253.106
rfemur -5.39122 2.36563 17.8013
rtibia 16.3097
rfoot -21.7208 -6.44531
rtoes -21.76
lfemur -76.286 8.20341 -26.7242
ltibia 90.2402
lfoot -43.6755 0.699839
ltoes -9.88913
566
root 36.2389 13.0674 -0.356466 -129.747 -80.9009 177.515
lowerback 23.3308 -0.232614 -1.72575
upperback 6.05003 -0.917051 2.84314
thorax -6.27391 -0.603206 4.36559
lowerneck -14.9726 -1.33907 -3.99054
upperneck 23.4702 2.34153 -17.3765
head 10.3061 -1.55029 -5.31532
rclavicle -1.86858e-014 -3.78188e-014
rhumerus 59.7165 17.9963 -53.5495
rradius 26.8268
rwrist 31.7216
rhand -22.0385 37.3894
rfingers 7.12502
rthumb 4.37155 7.45449
lclavicle -1.86858e-014 -3.78188e-014
lhumerus 57.6744 -15.9311 47.0466
lradius 24.4102
lwrist -13.6003
lhand -43.7921 76.6721
lfingers 7.12502
lthumb -16.6211 254.02
rfemur -5.20142 2.33965 17.7039
rtibia 16.0598
rfoot -21.5655 -5.59807
rtoes -20.5727
lfemur -76.1832 8.19314 -26.5643
ltibia 90.3116
lfoot -43.9142 0.813485
ltoes -10.3178
